<svg version="1.1" id="Layer_1" xmlns="http://www.w3.org/2000/svg" xmlns:xlink="http://www.w3.org/1999/xlink" x="0px" y="0px"
	 width="64px" height="64px" viewBox="0 0 64 64" enable-background="new 0 0 64 64" xml:space="preserve">
<path d="M52.877,23.361c-0.099-2.232-0.459-3.768-0.977-5.098c-0.518-1.395-1.231-2.568-2.405-3.734
	c-1.165-1.165-2.339-1.888-3.718-2.421c-1.338-0.518-2.865-0.879-5.098-0.978C38.432,11.024,37.717,11,32.012,11
	s-6.418,0.024-8.659,0.123c-2.232,0.099-3.768,0.46-5.097,0.977c-1.387,0.542-2.561,1.256-3.727,2.43
	c-1.174,1.166-1.888,2.34-2.429,3.719c-0.518,1.338-0.878,2.864-0.977,5.097C11.024,25.594,11,26.308,11,32.013
	c0,5.704,0.024,6.418,0.123,8.659c0.099,2.232,0.459,3.768,0.977,5.097c0.542,1.388,1.255,2.562,2.429,3.727
	c1.166,1.166,2.339,1.888,3.718,2.422c1.338,0.517,2.865,0.878,5.097,0.977c2.241,0.099,2.955,0.123,8.659,0.123
	c5.705,0,6.419-0.024,8.66-0.123c2.232-0.099,3.768-0.46,5.097-0.977c1.379-0.534,2.553-1.256,3.718-2.422
	c1.166-1.165,1.889-2.339,2.422-3.718c0.518-1.338,0.878-2.865,0.977-5.098C52.976,38.439,53,37.725,53,32.021
	S52.976,25.602,52.877,23.361z M32.012,42.806c-5.959,0-10.793-4.834-10.793-10.793s4.834-10.794,10.793-10.794
	c5.958,0,10.793,4.835,10.793,10.794S37.971,42.806,32.012,42.806z M43.232,23.312c-1.392,0-2.52-1.128-2.52-2.52
	s1.128-2.52,2.52-2.52s2.52,1.128,2.52,2.52S44.624,23.312,43.232,23.312z M39.014,32.013c0,3.865-3.135,7.001-7.001,7.001
	c-3.866,0-7.001-3.136-7.001-7.001c0-3.866,3.136-7.002,7.001-7.002C35.879,25.011,39.014,28.146,39.014,32.013z"/>
</svg>
