<svg width="97px" height="32px" viewBox="0 0 97 32" version="1.1" xmlns="http://www.w3.org/2000/svg" xmlns:xlink="http://www.w3.org/1999/xlink">
    <g id="Symbols" stroke="none" stroke-width="1" fill="none" fill-rule="evenodd">
            <path d="M5.40572597,7.02260751 C6.70929515,7.02260751 7.50423804,6.34338504 7.50423804,5.30282536 L7.50423804,5.26509078 C7.50423804,4.13019464 6.70929515,3.52529786 5.38743828,3.52529786 L3.66725272,3.52529786 L3.66725272,7.02260751 L5.40572597,7.02260751 L5.40572597,7.02260751 Z M0,0.443068604 L5.67089743,0.443068604 C9.01525818,0.443068604 11.1703478,2.16342249 11.1703478,5.09528516 L11.1703478,5.13301974 C11.1703478,8.25241184 8.77066037,9.89729657 5.48173416,9.89729657 L3.66725272,9.89729657 L3.66725272,13.6787591 L0,13.6787591 L0,0.443068604 L0,0.443068604 Z" id="Fill-1" fill="#57585A"></path>
            <path d="M21.5491816,6.79734349 C22.7967448,6.79734349 23.513965,6.19130324 23.513965,5.22678446 L23.513965,5.18962161 C23.513965,4.14963367 22.7584549,3.62020605 21.5308939,3.62020605 L19.1300635,3.62020605 L19.1300635,6.79734349 L21.5491816,6.79734349 Z M15.4633823,0.44364034 L21.7194857,0.44364034 C23.7408466,0.44364034 25.1398547,0.973639694 26.028522,1.87984139 C26.8023197,2.63681998 27.2000769,3.65794063 27.2000769,4.96321412 L27.2000769,4.99980523 C27.2000769,7.02260751 26.1222463,8.36618732 24.4786405,9.06599229 L27.6355524,13.6787591 L23.4013814,13.6787591 L20.7365225,9.67031734 L20.6982327,9.67031734 L19.1300635,9.67031734 L19.1300635,13.6787591 L15.4633823,13.6787591 L15.4633823,0.44364034 Z" id="Fill-3" fill="#57585A"></path>
            <path d="M41.8493714,7.09939167 L41.8493714,7.06108535 C41.8493714,5.15205855 40.469794,3.4877348 38.4478616,3.4877348 C36.4436454,3.4877348 35.1023579,5.1131805 35.1023579,7.02277903 L35.1023579,7.06108535 C35.1023579,8.97011215 36.4819353,10.6344359 38.48558,10.6344359 C40.5075124,10.6344359 41.8493714,9.00899021 41.8493714,7.09939167 M31.3408093,7.09939167 L31.3408093,7.06108535 C31.3408093,3.26075557 34.4034253,0.179098052 38.48558,0.179098052 C42.5665916,0.179098052 45.5914893,3.22359272 45.5914893,7.02277903 L45.5914893,7.06108535 C45.5914893,10.8608434 42.5294447,13.9442161 38.4478616,13.9442161 C34.3651355,13.9442161 31.3408093,10.8997215 31.3408093,7.09939167" id="Fill-5" fill="#57585A"></path>
            <polygon id="Fill-8" fill="#57585A" points="0 18.4494965 0 31.685187 10.0725151 31.685187 10.0725151 28.4703149 3.66725272 28.4703149 3.66725272 18.4494965"></polygon>
            <path d="M24.1990675,25.1057052 L24.1990675,25.0673989 C24.1990675,23.1583721 22.8194901,21.4940483 20.7975577,21.4940483 C18.7933415,21.4940483 17.452054,23.119494 17.452054,25.0290926 L17.452054,25.0673989 C17.452054,26.9764257 18.8316313,28.6407495 20.8341331,28.6407495 C22.8572084,28.6407495 24.1990675,27.0153038 24.1990675,25.1057052 M13.6905053,25.1057052 L13.6905053,25.0673989 C13.6905053,21.2670691 16.7525499,18.1854116 20.8341331,18.1854116 C24.9162877,18.1854116 27.9411854,21.2299063 27.9411854,25.0290926 L27.9411854,25.0673989 C27.9411854,28.8671569 24.8791408,31.9505297 20.7975577,31.9505297 C16.7148316,31.9505297 13.6905053,28.906035 13.6905053,25.1057052" id="Fill-10" fill="#57585A"></path>
            <path d="M32.136838,25.1057052 L32.136838,25.0673989 C32.136838,21.2098955 35.1045867,18.1854116 39.1118761,18.1854116 C41.8144533,18.1854116 43.5534981,19.3191643 44.7244815,20.9463252 L41.9653267,23.0823312 C41.2098167,22.1366797 40.3405801,21.5323547 39.0735862,21.5323547 C37.2219579,21.5323547 35.9172458,23.1017702 35.9172458,25.0290926 L35.9172458,25.0673989 C35.9172458,27.0530383 37.2219579,28.6041583 39.0735862,28.6041583 C40.4531636,28.6041583 41.2663942,27.9603835 42.0601941,26.9964365 L44.8199204,28.9626369 C43.5717857,30.6841342 41.88989,31.9505297 38.9604312,31.9505297 C35.1800234,31.9505297 32.136838,29.0564016 32.136838,25.1057052" id="Fill-12" fill="#57585A"></path>
            <polygon id="Fill-14" fill="#57585A" points="58.3801831 18.4494965 53.8248346 23.8203853 53.8248346 18.4494965 50.1587248 18.4494965 50.1587248 31.685187 53.8248346 31.685187 53.8248346 28.2633465 55.1666936 26.7699718 58.4933382 31.685187 62.8960988 31.685187 57.7195404 24.1411293 62.7275092 18.4494965"></polygon>
            <polygon id="Fill-16" fill="#57585A" points="67.7266199 18.4494965 67.7266199 31.685187 78.4620636 31.685187 78.4620636 28.5657949 71.3550113 28.5657949 71.3550113 26.4658082 77.6774075 26.4658082 77.705982 23.5739671 71.3550113 23.5739671 71.3550113 21.5688886 78.3677677 21.5688886 78.3677677 18.4494965"></polygon>
            <path d="M90.1905287,24.803657 C91.4380919,24.803657 92.1553121,24.1976168 92.1553121,23.233098 L92.1553121,23.1959352 C92.1553121,22.1559472 91.399802,21.6265196 90.1722411,21.6265196 L87.7714107,21.6265196 L87.7714107,24.803657 L90.1905287,24.803657 Z M84.1041579,18.4499539 L90.3602613,18.4499539 C92.3821937,18.4499539 93.7812018,18.9799532 94.6698691,19.8861549 C95.4448098,20.6431335 95.841424,21.6642542 95.841424,22.9695277 L95.841424,23.0061188 C95.841424,25.0289211 94.7635935,26.3725009 93.1199876,27.0723058 L96.2763281,31.6850726 L92.0427285,31.6850726 L89.3778697,27.6766309 L89.3395798,27.6766309 L87.7714107,27.6766309 L87.7714107,31.6850726 L84.1041579,31.6850726 L84.1041579,18.4499539 Z" id="Fill-18" fill="#57585A"></path>
            <polygon id="Fill-20" fill="#EF4622" points="50.1305504 8.66897875 95.3491423 8.66897875 95.3491423 5.45410673 50.1305504 5.45410673"></polygon>
    </g>
</svg>
