<svg width="64px" height="64px" viewBox="0 0 64 64" version="1.1" xmlns="http://www.w3.org/2000/svg" xmlns:xlink="http://www.w3.org/1999/xlink">
            <path d="M36.5748571,24.7142857 C35.7288452,24.7142857 35.0429206,23.6908571 35.0429206,22.4285714 C35.0429206,21.1662857 35.7288452,20.1428571 36.5748571,20.1428571 C37.4208691,20.1428571 38.1067937,21.1662857 38.1067937,22.4285714 C38.1067937,23.6908571 37.4208691,24.7142857 36.5748571,24.7142857 M37.3039632,27.5426667 C35.8441234,28.9738095 33.9530436,29.7619048 31.9790476,29.7619048 C29.9838918,29.7619048 28.0913757,28.972381 26.6501107,27.5387619 C26.3509044,27.2412381 26.3510001,26.7588571 26.6501107,26.4613333 C26.9493171,26.1638095 27.4342707,26.1638095 27.7332856,26.4613333 C28.8853018,27.6070476 30.3931103,28.2380952 31.9790476,28.2380952 C33.5480378,28.2380952 35.0572825,27.6057143 36.2287352,26.4573333 C36.5301437,26.1619048 37.0150974,26.165619 37.3118143,26.4651429 C37.6088185,26.7648571 37.6052759,27.2473333 37.3039632,27.5426667 M27.3832381,20.1428571 C28.22925,20.1428571 28.9151746,21.1661905 28.9151746,22.4285714 C28.9151746,23.6909524 28.22925,24.7142857 27.3832381,24.7142857 C26.5372262,24.7142857 25.8513016,23.6909524 25.8513016,22.4285714 C25.8513016,21.1661905 26.5372262,20.1428571 27.3832381,20.1428571 M54.9579037,42.2751429 L54.9398077,40.8941905 L53.5612564,40.7722857 C52.0855228,40.6394286 49.3675802,40.0848571 48.3621511,39.1628571 C46.80331,37.7332381 44.9451667,35.7153333 44.9451667,34.2205714 C44.9451667,34.1240952 44.9451667,33.9781905 45.3425128,33.7267619 C45.8198067,33.4244762 46.5478596,33.1949524 47.1901239,32.9924762 C47.689631,32.8350476 48.1613717,32.6860952 48.5682923,32.4939048 C49.4526027,32.0757143 50.3394024,30.9720952 50.2410712,29.7502857 C50.1247398,28.3059048 48.8600305,27.1744762 47.3617966,27.1744762 C46.9768018,27.1744762 46.5893176,27.2468571 46.210259,27.389619 C45.4417057,27.6792381 44.8944213,27.809619 44.5150756,27.8621905 C44.5865978,26.9746667 44.6865567,25.946 44.8225161,24.9412381 C45.311874,21.3271429 44.3168813,17.940381 42.0206042,15.3181905 C39.5906657,12.543619 35.9406354,11 32.0061437,11 L31.9790476,11 C28.0445559,11 24.3945257,12.543619 21.9648744,15.3181905 C19.6686931,17.9404762 18.6736046,21.3510476 19.1628668,24.9650476 C19.2984432,25.966 19.398402,26.9870476 19.4702116,27.8810476 C19.0900998,27.8278095 18.5428155,27.6907619 17.7752196,27.401619 C17.3955865,27.2585714 17.0076236,27.1830476 16.6221501,27.1830476 C15.1245864,27.1829524 13.8604516,28.3118095 13.7443116,29.7547619 C13.6459804,30.9755238 14.5327802,32.0779048 15.4169948,32.496 C15.8240112,32.6884762 16.2960391,32.8367619 16.7957377,32.9941905 C17.4379063,33.1965714 18.1657676,33.426 18.6429658,33.7279048 C19.0400246,33.9792381 19.0400246,34.1248571 19.0400246,34.2214286 C19.0400246,35.0460952 18.447261,36.5729524 15.6230403,39.1631429 C14.6178027,40.0852381 11.883679,40.6394286 10.3964559,40.7722857 L9.0012447,40.8972381 L9,42.295619 C9,42.4554286 9.02987276,43.2998095 9.62091302,44.2306667 C10.1231967,45.0218095 11.159839,46.0671429 13.246145,46.5551429 C13.8377597,46.6935238 14.3171601,46.7992381 14.7022507,46.8840952 C14.923041,46.9328571 15.1383738,46.9802857 15.3201956,47.0224762 C15.3227807,47.042381 15.3253658,47.0621905 15.327951,47.0818095 C15.4141224,47.7488571 15.4821978,48.275619 15.7484676,48.7722857 C15.9833326,49.210381 16.569394,49.9452381 17.8563164,49.9452381 C18.0935751,49.9452381 18.3588874,49.9218095 18.6674768,49.8737143 C18.8275642,49.8486667 18.9916729,49.8209524 19.1653562,49.7915238 C19.846685,49.6760952 20.6189724,49.5451429 21.4106964,49.5451429 C22.3946783,49.5451429 23.204211,49.7535238 23.8853483,50.1820952 C24.3191736,50.4551429 24.736722,50.7508571 25.1787815,51.064 C26.9013483,52.2839048 28.8537057,53.6666667 31.9790476,53.6666667 C35.112528,53.6666667 37.0816409,52.2779048 38.8190484,51.0527619 C39.2571822,50.7438095 39.6709966,50.4519048 40.099843,50.1820952 C40.7808846,49.7535238 41.5904173,49.5451429 42.574495,49.5451429 C43.3663147,49.5451429 44.1384107,49.6760952 44.8196437,49.7914286 C44.993327,49.8210476 45.1575314,49.8487619 45.3177145,49.8737143 C45.626304,49.9218095 45.8915205,49.9452381 46.1288749,49.9452381 C47.4157016,49.9452381 48.0018588,49.2104762 48.2367238,48.7725714 C48.5029935,48.276 48.571069,47.7491429 48.6572404,47.0821905 C48.6598255,47.062381 48.6625064,47.042381 48.6650916,47.0222857 C48.8468175,46.9802857 49.0622461,46.9326667 49.2831322,46.884 C49.6683185,46.7990476 50.1476231,46.6934286 50.7390463,46.5550476 C52.8311929,46.065619 53.8614202,45.0150476 54.3572889,44.2200952 C54.9410524,43.284 54.9601059,42.435619 54.9579037,42.2751429" id="Fill-1"></path>
</svg>