<svg width="64px" height="64px" viewBox="0 0 64 64" version="1.1" xmlns="http://www.w3.org/2000/svg" xmlns:xlink="http://www.w3.org/1999/xlink">
            <path d="M10.1328649,46.4586958 C14.4112517,45.9739535 17.9332624,45.0344263 20.8337081,42.1522207 C18.0500031,40.9231036 15.6483583,39.4574641 14.3079922,36.7826791 C15.1524257,35.8448639 16.5252039,36.7307527 17.2853088,35.4876553 C12.9601684,33.5344203 10.2298141,30.3526388 9.72355556,25.4521475 C11.0102841,25.1251818 11.9269994,26.4461689 13.3129718,25.8093561 C11.082279,21.988194 10.2648076,18.0212383 12.595318,13.6654046 C14.3340939,15.2985213 15.877824,16.8337765 17.5130535,18.265464 C20.031152,20.4703427 22.6757435,22.5008968 26.0328258,23.3128902 C26.7705578,23.4917798 27.5226315,23.663822 28.2764261,23.713466 C30.6493876,23.8701014 30.8160371,23.8050506 31.0130907,21.3921806 C31.499271,15.4351849 38.1804499,10.7398318 44.9886954,14.9413126 C47.4634823,16.4688645 49.322154,16.2936839 51.557723,15.2055101 C52.1460155,14.9190584 52.7234084,14.609782 53.5948042,14.1635565 C53.2942042,16.3824154 51.5786617,17.4511882 50.5228329,18.9601948 C52.1566283,19.4897309 53.4066423,18.4931417 55.1769698,18.2837239 C54.4263303,20.2575012 53.1605405,21.6307001 51.5778012,22.4954759 C50.0475522,23.3317207 49.800303,24.4278832 49.7524021,25.9625678 C49.1520626,45.2210193 28.1054742,56.7398558 11.2403234,47.3186213 C11.0011055,47.1853814 10.8011836,46.9819551 10.1328649,46.4586958" id="Fill-1"></path>
</svg>
