<svg width="64px" height="64px" viewBox="0 0 64 64" version="1.1" xmlns="http://www.w3.org/2000/svg" xmlns:xlink="http://www.w3.org/1999/xlink">
            <path d="M59.43125,20.4984375 C59.43125,20.4984375 58.884375,16.6375 57.2,14.9421875 C55.0671875,12.7109375 52.6828125,12.7 51.5890625,12.56875 C43.7578125,12 32,12 32,12 L31.978125,12 C31.978125,12 20.2203125,12 12.3890625,12.56875 C11.2953125,12.7 8.9109375,12.7109375 6.778125,14.9421875 C5.09375,16.6375 4.5578125,20.4984375 4.5578125,20.4984375 C4.5578125,20.4984375 4,25.0265625 4,29.565625 L4,33.809375 C4,38.3375 4.5578125,42.8765625 4.5578125,42.8765625 C4.5578125,42.8765625 5.1046875,46.7375 6.778125,48.4328125 C8.9109375,50.6640625 11.7109375,50.5875 12.9578125,50.828125 C17.4421875,51.2546875 32,51.3859375 32,51.3859375 C32,51.3859375 43.76875,51.3640625 51.6,50.80625 C52.69375,50.675 55.078125,50.6640625 57.2109375,48.4328125 C58.8953125,46.7375 59.4421875,42.8765625 59.4421875,42.8765625 C59.4421875,42.8765625 60,38.3484375 60,33.809375 L60,29.565625 C59.9890625,25.0375 59.43125,20.4984375 59.43125,20.4984375 L59.43125,20.4984375 Z M26.203125,38.9609375 L26.203125,23.221875 L41.3296875,31.11875 L26.203125,38.9609375 L26.203125,38.9609375 Z" id="Shape"></path>
</svg>